<svg width="22" height="21" viewBox="0 0 22 21" fill="none" xmlns="http://www.w3.org/2000/svg">
<path d="M21.9926 0.988454C21.9644 0.248935 21.1458 -0.206919 20.4843 0.0937071L0.601199 9.51202C-0.135077 9.834 -0.216157 10.9467 0.475026 11.366L5.1351 14.4128V19.4962C5.10783 20.4128 6.31881 20.9252 6.9534 20.2493L9.76393 17.4391L13.6974 20.0108C13.8728 20.1256 14.076 20.1845 14.2806 20.1845C14.718 20.188 15.1323 19.9011 15.2799 19.4879L21.94 1.42477C21.9899 1.28234 22.013 1.13521 21.9926 0.988454ZM15.8392 4.65136L7.24386 13.2464L3.23153 10.6233L15.8392 4.65136ZM7.26545 16.9249V15.8056L7.94231 16.2481L7.26545 16.9249ZM13.7438 17.4959L9.06543 14.4373L18.2625 5.24046L13.7438 17.4959Z" fill="black"/>
</svg>
